<svg width="196" height="35" viewBox="0 0 196 35" fill="none" xmlns="http://www.w3.org/2000/svg">
<path d="M1 24.2315L11.1325 21.4321" stroke="#009688" stroke-width="1.3" stroke-miterlimit="10" stroke-linecap="round"/>
<path d="M11.7695 29.2181L14.9199 28.3794" stroke="#009688" stroke-width="1.3" stroke-miterlimit="10" stroke-linecap="round"/>
<path d="M5.82617 15.5726C5.97878 13.3777 6.58719 11.2403 7.61146 9.30077C8.63573 7.36124 10.0527 5.66336 11.7694 4.31856C13.4652 2.99649 15.4081 2.03755 17.4801 1.49987C19.5521 0.962183 21.7102 0.856954 23.8235 1.19056" stroke="#009688" stroke-width="1.3" stroke-miterlimit="10" stroke-linecap="round"/>
<path d="M36.3693 13.2041C36.9466 15.2914 37.0535 17.4838 36.6821 19.6188C36.3729 21.779 35.51 23.819 34.1797 25.5348" stroke="#009688" stroke-width="1.3" stroke-miterlimit="10" stroke-linecap="round"/>
<path d="M8.42969 26.1241L12.8536 24.8774" stroke="#009688" stroke-width="1.3" stroke-miterlimit="10" stroke-linecap="round"/>
<path d="M5.2793 26.9739L6.56402 26.6226" stroke="#009688" stroke-width="1.3" stroke-miterlimit="10" stroke-linecap="round"/>
<path d="M33.6211 10.1099L36.0788 9.40723" stroke="#009688" stroke-width="1.3" stroke-miterlimit="10" stroke-linecap="round"/>
<path d="M32.1914 7.57104L33.9565 5.76904" stroke="#009688" stroke-width="1.3" stroke-miterlimit="10" stroke-linecap="round"/>
<path d="M29.7773 6.10906L30.3694 3.61572" stroke="#009688" stroke-width="1.3" stroke-miterlimit="10" stroke-linecap="round"/>
<path d="M26.8284 6.21106L26.2363 3.61572" stroke="#009688" stroke-width="1.3" stroke-miterlimit="10" stroke-linecap="round"/>
<path d="M14.2378 17.4993C14.2378 17.4993 9.31116 11.4586 11.8694 9.65664C14.1037 8.06997 15.9023 11.062 16.595 12.2066C17.3882 13.5213 19.9464 17.3973 19.9464 17.3973" stroke="#009688" stroke-width="1.3" stroke-miterlimit="10" stroke-linecap="round"/>
<path d="M14.3281 13.7026C14.6298 12.898 16.3055 12.5013 16.2831 11.7646" stroke="#009688" stroke-width="1.3" stroke-miterlimit="10" stroke-linecap="round"/>
<path d="M15.7129 16.3999C15.9076 15.7938 16.3287 15.2893 16.8859 14.9946C17.2478 14.8129 17.5826 14.5801 17.8802 14.3032" stroke="#009688" stroke-width="1.3" stroke-miterlimit="10" stroke-linecap="round"/>
<path d="M18.5718 6.93661L18.4824 4.86261L22.5042 4.61328L22.6047 6.73261L18.5718 6.93661Z" stroke="#009688" stroke-width="1.3" stroke-linecap="round" stroke-linejoin="round"/>
<path d="M18.6621 12.9999V10.7332C18.6658 10.2696 18.8016 9.81693 19.0531 9.42986C19.3363 8.63211 19.4393 7.78006 19.3547 6.93652" stroke="#009688" stroke-width="1.3" stroke-linecap="round" stroke-linejoin="round"/>
<path d="M27.4199 8.61377C27.6946 8.79779 27.9194 9.04884 28.0736 9.34388C28.2278 9.63892 28.3065 9.96852 28.3025 10.3024" stroke="#009688" stroke-width="1.3" stroke-linecap="round" stroke-linejoin="round"/>
<path d="M26.727 10.9033C26.2983 11.1805 25.9468 11.5647 25.7062 12.0191C25.4656 12.4735 25.344 12.9829 25.3529 13.4987C25.3387 13.9173 25.4347 14.3323 25.6311 14.7008C25.8274 15.0693 26.117 15.3781 26.4701 15.5953" stroke="#009688" stroke-width="1.3" stroke-linecap="round" stroke-linejoin="round"/>
<path d="M28.8945 11.606C29.2273 11.3595 29.6366 11.2433 30.0472 11.2787C30.4577 11.3141 30.8418 11.4988 31.1288 11.7987C31.4126 12.1199 31.6001 12.5166 31.6694 12.9422C31.7387 13.3678 31.6868 13.8046 31.5198 14.2013" stroke="#009688" stroke-width="1.3" stroke-miterlimit="10" stroke-linecap="round"/>
<path d="M23.6787 16.4001L23.5782 11.5041C23.4949 10.5318 23.1553 9.6001 22.5951 8.80673C22.2973 8.21968 22.1296 7.57374 22.1035 6.91406" stroke="#009688" stroke-width="1.3" stroke-linecap="round" stroke-linejoin="round"/>
<path d="M4.78711 19.1881L11.2777 17.4881L17.4779 28.9687L31.945 25.0814V16.4907" stroke="#009688" stroke-width="1.3" stroke-linecap="round" stroke-linejoin="round"/>
<path d="M14.9199 18.9385L32.4815 14.1445" stroke="#009688" stroke-width="1.3" stroke-linecap="round" stroke-linejoin="round"/>
<path d="M16.6406 21.3867L29.432 17.8394" stroke="#009688" stroke-width="1.3" stroke-miterlimit="10" stroke-linecap="round"/>
<path d="M17.6348 23.5285L29.2866 20.3892" stroke="#009688" stroke-width="1.3" stroke-miterlimit="10" stroke-linecap="round"/>
<path d="M18.6172 25.7841L29.0402 22.9395" stroke="#009688" stroke-width="1.3" stroke-miterlimit="10" stroke-linecap="round"/>
<path d="M31.0072 31.2691C32.0931 31.2691 32.9734 30.3761 32.9734 29.2745C32.9734 28.1728 32.0931 27.2798 31.0072 27.2798C29.9213 27.2798 29.041 28.1728 29.041 29.2745C29.041 30.3761 29.9213 31.2691 31.0072 31.2691Z" stroke="#009688" stroke-width="1.3" stroke-miterlimit="10" stroke-linecap="round"/>
<path d="M21.3666 33.8643C22.4525 33.8643 23.3328 32.9713 23.3328 31.8697C23.3328 30.768 22.4525 29.875 21.3666 29.875C20.2807 29.875 19.4004 30.768 19.4004 31.8697C19.4004 32.9713 20.2807 33.8643 21.3666 33.8643Z" stroke="#009688" stroke-width="1.3" stroke-miterlimit="10" stroke-linecap="round"/>
<path d="M24.8633 30.8725L27.5668 30.1245" stroke="#009688" stroke-width="1.3" stroke-miterlimit="10" stroke-linecap="round"/>
<path d="M61.1984 27.6321L55.8384 20.3721L58.3384 18.6321L63.6384 25.8321L61.1984 27.6321ZM57.0184 25.6321C55.9651 25.6321 54.9984 25.4521 54.1184 25.0921C53.2384 24.7321 52.4718 24.2255 51.8184 23.5721C51.1651 22.9188 50.6584 22.1521 50.2984 21.2721C49.9384 20.3921 49.7584 19.4255 49.7584 18.3721C49.7584 17.3188 49.9384 16.3521 50.2984 15.4721C50.6584 14.5921 51.1651 13.8255 51.8184 13.1721C52.4718 12.5188 53.2384 12.0121 54.1184 11.6521C54.9984 11.2921 55.9651 11.1121 57.0184 11.1121C58.0718 11.1121 59.0384 11.2921 59.9184 11.6521C60.7984 12.0121 61.5651 12.5188 62.2184 13.1721C62.8718 13.8255 63.3718 14.5921 63.7184 15.4721C64.0784 16.3521 64.2584 17.3188 64.2584 18.3721C64.2584 19.4121 64.0784 20.3788 63.7184 21.2721C63.3718 22.1521 62.8718 22.9188 62.2184 23.5721C61.5651 24.2255 60.7984 24.7321 59.9184 25.0921C59.0384 25.4521 58.0718 25.6321 57.0184 25.6321ZM57.0184 22.4321C57.5651 22.4321 58.0651 22.3321 58.5184 22.1321C58.9851 21.9321 59.3851 21.6521 59.7184 21.2921C60.0651 20.9188 60.3318 20.4855 60.5184 19.9921C60.7051 19.4988 60.7984 18.9588 60.7984 18.3721C60.7984 17.7855 60.7051 17.2455 60.5184 16.7521C60.3318 16.2588 60.0651 15.8321 59.7184 15.4721C59.3851 15.0988 58.9851 14.8121 58.5184 14.6121C58.0651 14.4121 57.5651 14.3121 57.0184 14.3121C56.4718 14.3121 55.9651 14.4121 55.4984 14.6121C55.0451 14.8121 54.6451 15.0988 54.2984 15.4721C53.9518 15.8321 53.6851 16.2588 53.4984 16.7521C53.3251 17.2455 53.2384 17.7855 53.2384 18.3721C53.2384 18.9588 53.3251 19.5055 53.4984 20.0121C53.6851 20.5055 53.9518 20.9321 54.2984 21.2921C54.6451 21.6521 55.0451 21.9321 55.4984 22.1321C55.9651 22.3321 56.4718 22.4321 57.0184 22.4321ZM70.1689 25.6521C69.3822 25.6521 68.7089 25.4855 68.1489 25.1521C67.6022 24.8055 67.1756 24.3121 66.8689 23.6721C66.5756 23.0321 66.4289 22.2655 66.4289 21.3721V14.8121H69.6489V20.9321C69.6489 21.3588 69.7156 21.7255 69.8489 22.0321C69.9822 22.3388 70.1822 22.5788 70.4489 22.7521C70.7156 22.9121 71.0356 22.9921 71.4089 22.9921C71.6889 22.9921 71.9422 22.9455 72.1689 22.8521C72.4089 22.7588 72.6089 22.6321 72.7689 22.4721C72.9422 22.2988 73.0756 22.1055 73.1689 21.8921C73.2622 21.6655 73.3089 21.4188 73.3089 21.1521V14.8121H76.5289V25.4321H73.5089L73.3689 23.2521L73.9689 23.0121C73.8089 23.5188 73.5422 23.9721 73.1689 24.3721C72.7956 24.7588 72.3489 25.0721 71.8289 25.3121C71.3089 25.5388 70.7556 25.6521 70.1689 25.6521ZM83.3009 25.6121C82.4076 25.6121 81.6076 25.3788 80.9009 24.9121C80.2076 24.4321 79.6543 23.7788 79.2409 22.9521C78.8276 22.1121 78.6209 21.1655 78.6209 20.1121C78.6209 19.0321 78.8276 18.0788 79.2409 17.2521C79.6543 16.4255 80.2209 15.7788 80.9409 15.3121C81.6609 14.8321 82.4809 14.5921 83.4009 14.5921C83.9076 14.5921 84.3676 14.6655 84.7809 14.8121C85.2076 14.9588 85.5809 15.1655 85.9009 15.4321C86.2209 15.6855 86.4943 15.9855 86.7209 16.3321C86.9476 16.6655 87.1143 17.0255 87.2209 17.4121L86.5609 17.3321V14.8121H89.7409V25.4321H86.5009V22.8721L87.2209 22.8521C87.1143 23.2255 86.9409 23.5788 86.7009 23.9121C86.4609 24.2455 86.1676 24.5388 85.8209 24.7921C85.4743 25.0455 85.0876 25.2455 84.6609 25.3921C84.2343 25.5388 83.7809 25.6121 83.3009 25.6121ZM84.1809 22.9121C84.6743 22.9121 85.1009 22.7988 85.4609 22.5721C85.8209 22.3455 86.1009 22.0255 86.3009 21.6121C86.5009 21.1855 86.6009 20.6855 86.6009 20.1121C86.6009 19.5388 86.5009 19.0455 86.3009 18.6321C86.1009 18.2055 85.8209 17.8788 85.4609 17.6521C85.1009 17.4121 84.6743 17.2921 84.1809 17.2921C83.7009 17.2921 83.2809 17.4121 82.9209 17.6521C82.5743 17.8788 82.3009 18.2055 82.1009 18.6321C81.9009 19.0455 81.8009 19.5388 81.8009 20.1121C81.8009 20.6855 81.9009 21.1855 82.1009 21.6121C82.3009 22.0255 82.5743 22.3455 82.9209 22.5721C83.2809 22.7988 83.7009 22.9121 84.1809 22.9121ZM93.4445 25.4321V12.1321H96.6445V25.4321H93.4445ZM91.5645 17.6121V14.8121H98.7045V17.6121H91.5645ZM100.533 25.4321V14.8121H103.573L103.713 18.2721L103.113 17.6121C103.273 17.0388 103.533 16.5255 103.893 16.0721C104.267 15.6188 104.7 15.2588 105.193 14.9921C105.687 14.7255 106.213 14.5921 106.773 14.5921C107.013 14.5921 107.233 14.6121 107.433 14.6521C107.647 14.6921 107.84 14.7388 108.013 14.7921L107.133 18.3321C106.987 18.2388 106.787 18.1655 106.533 18.1121C106.293 18.0455 106.04 18.0121 105.773 18.0121C105.48 18.0121 105.207 18.0655 104.953 18.1721C104.7 18.2655 104.487 18.4055 104.313 18.5921C104.14 18.7788 104 18.9988 103.893 19.2521C103.8 19.5055 103.753 19.7921 103.753 20.1121V25.4321H100.533ZM114.186 25.6321C113.079 25.6321 112.092 25.3921 111.226 24.9121C110.372 24.4321 109.692 23.7788 109.186 22.9521C108.692 22.1255 108.446 21.1788 108.446 20.1121C108.446 19.0455 108.692 18.0988 109.186 17.2721C109.692 16.4455 110.372 15.7921 111.226 15.3121C112.092 14.8321 113.079 14.5921 114.186 14.5921C115.292 14.5921 116.272 14.8321 117.126 15.3121C117.992 15.7921 118.672 16.4455 119.166 17.2721C119.659 18.0988 119.906 19.0455 119.906 20.1121C119.906 21.1788 119.659 22.1255 119.166 22.9521C118.672 23.7788 117.992 24.4321 117.126 24.9121C116.272 25.3921 115.292 25.6321 114.186 25.6321ZM114.186 22.8721C114.666 22.8721 115.092 22.7521 115.466 22.5121C115.839 22.2721 116.132 21.9455 116.346 21.5321C116.559 21.1188 116.659 20.6455 116.646 20.1121C116.659 19.5788 116.559 19.1055 116.346 18.6921C116.132 18.2655 115.839 17.9321 115.466 17.6921C115.092 17.4521 114.666 17.3321 114.186 17.3321C113.706 17.3321 113.272 17.4521 112.886 17.6921C112.512 17.9321 112.219 18.2655 112.006 18.6921C111.792 19.1055 111.692 19.5788 111.706 20.1121C111.692 20.6455 111.792 21.1188 112.006 21.5321C112.219 21.9455 112.512 22.2721 112.886 22.5121C113.272 22.7521 113.706 22.8721 114.186 22.8721ZM135.244 25.6321C134.124 25.6321 133.111 25.4521 132.204 25.0921C131.298 24.7321 130.518 24.2255 129.864 23.5721C129.211 22.9188 128.711 22.1521 128.364 21.2721C128.018 20.3788 127.844 19.4121 127.844 18.3721C127.844 17.3321 128.024 16.3788 128.384 15.5121C128.758 14.6321 129.284 13.8655 129.964 13.2121C130.644 12.5588 131.444 12.0521 132.364 11.6921C133.298 11.3321 134.311 11.1521 135.404 11.1521C136.178 11.1521 136.904 11.2521 137.584 11.4521C138.278 11.6521 138.904 11.9255 139.464 12.2721C140.024 12.6188 140.498 13.0188 140.884 13.4721L138.824 15.6521C138.491 15.3321 138.144 15.0655 137.784 14.8521C137.438 14.6388 137.064 14.4721 136.664 14.3521C136.264 14.2188 135.838 14.1521 135.384 14.1521C134.798 14.1521 134.258 14.2588 133.764 14.4721C133.284 14.6855 132.858 14.9855 132.484 15.3721C132.124 15.7455 131.844 16.1921 131.644 16.7121C131.444 17.2188 131.344 17.7721 131.344 18.3721C131.344 18.9721 131.451 19.5321 131.664 20.0521C131.878 20.5721 132.171 21.0255 132.544 21.4121C132.918 21.7855 133.358 22.0855 133.864 22.3121C134.384 22.5255 134.938 22.6321 135.524 22.6321C135.938 22.6321 136.324 22.5655 136.684 22.4321C137.058 22.2988 137.378 22.1188 137.644 21.8921C137.911 21.6655 138.124 21.3988 138.284 21.0921C138.444 20.7721 138.524 20.4321 138.524 20.0721V19.5521L138.964 20.2321H135.104V17.5721H141.684C141.711 17.7188 141.731 17.9188 141.744 18.1721C141.758 18.4255 141.764 18.6721 141.764 18.9121C141.778 19.1521 141.784 19.3321 141.784 19.4521C141.784 20.3588 141.618 21.1921 141.284 21.9521C140.964 22.6988 140.511 23.3455 139.924 23.8921C139.338 24.4388 138.644 24.8655 137.844 25.1721C137.044 25.4788 136.178 25.6321 135.244 25.6321ZM144.049 25.4321V14.8121H147.089L147.229 18.2721L146.629 17.6121C146.789 17.0388 147.049 16.5255 147.409 16.0721C147.782 15.6188 148.216 15.2588 148.709 14.9921C149.202 14.7255 149.729 14.5921 150.289 14.5921C150.529 14.5921 150.749 14.6121 150.949 14.6521C151.162 14.6921 151.356 14.7388 151.529 14.7921L150.649 18.3321C150.502 18.2388 150.302 18.1655 150.049 18.1121C149.809 18.0455 149.556 18.0121 149.289 18.0121C148.996 18.0121 148.722 18.0655 148.469 18.1721C148.216 18.2655 148.002 18.4055 147.829 18.5921C147.656 18.7788 147.516 18.9988 147.409 19.2521C147.316 19.5055 147.269 19.7921 147.269 20.1121V25.4321H144.049ZM157.701 25.6321C156.595 25.6321 155.608 25.3921 154.741 24.9121C153.888 24.4321 153.208 23.7788 152.701 22.9521C152.208 22.1255 151.961 21.1788 151.961 20.1121C151.961 19.0455 152.208 18.0988 152.701 17.2721C153.208 16.4455 153.888 15.7921 154.741 15.3121C155.608 14.8321 156.595 14.5921 157.701 14.5921C158.808 14.5921 159.788 14.8321 160.641 15.3121C161.508 15.7921 162.188 16.4455 162.681 17.2721C163.175 18.0988 163.421 19.0455 163.421 20.1121C163.421 21.1788 163.175 22.1255 162.681 22.9521C162.188 23.7788 161.508 24.4321 160.641 24.9121C159.788 25.3921 158.808 25.6321 157.701 25.6321ZM157.701 22.8721C158.181 22.8721 158.608 22.7521 158.981 22.5121C159.355 22.2721 159.648 21.9455 159.861 21.5321C160.075 21.1188 160.175 20.6455 160.161 20.1121C160.175 19.5788 160.075 19.1055 159.861 18.6921C159.648 18.2655 159.355 17.9321 158.981 17.6921C158.608 17.4521 158.181 17.3321 157.701 17.3321C157.221 17.3321 156.788 17.4521 156.401 17.6921C156.028 17.9321 155.735 18.2655 155.521 18.6921C155.308 19.1055 155.208 19.5788 155.221 20.1121C155.208 20.6455 155.308 21.1188 155.521 21.5321C155.735 21.9455 156.028 22.2721 156.401 22.5121C156.788 22.7521 157.221 22.8721 157.701 22.8721ZM170.174 25.6321C169.147 25.6321 168.227 25.3921 167.414 24.9121C166.6 24.4321 165.954 23.7788 165.474 22.9521C165.007 22.1121 164.774 21.1655 164.774 20.1121C164.774 19.0588 165.007 18.1188 165.474 17.2921C165.954 16.4521 166.6 15.7921 167.414 15.3121C168.227 14.8321 169.147 14.5921 170.174 14.5921C171.12 14.5921 171.987 14.7588 172.774 15.0921C173.574 15.4255 174.207 15.8921 174.674 16.4921L172.934 18.5721C172.747 18.3588 172.527 18.1588 172.274 17.9721C172.02 17.7855 171.74 17.6388 171.434 17.5321C171.127 17.4255 170.807 17.3721 170.474 17.3721C169.967 17.3721 169.52 17.4921 169.134 17.7321C168.747 17.9588 168.447 18.2788 168.234 18.6921C168.02 19.1055 167.914 19.5788 167.914 20.1121C167.914 20.6188 168.02 21.0788 168.234 21.4921C168.46 21.9055 168.767 22.2321 169.154 22.4721C169.54 22.7121 169.98 22.8321 170.474 22.8321C170.82 22.8321 171.14 22.7921 171.434 22.7121C171.727 22.6188 171.994 22.4855 172.234 22.3121C172.487 22.1388 172.72 21.9255 172.934 21.6721L174.654 23.7721C174.2 24.3455 173.567 24.7988 172.754 25.1321C171.954 25.4655 171.094 25.6321 170.174 25.6321ZM181.472 25.6321C180.299 25.6321 179.279 25.3988 178.412 24.9321C177.546 24.4521 176.872 23.8055 176.392 22.9921C175.912 22.1655 175.672 21.2255 175.672 20.1721C175.672 19.3588 175.806 18.6121 176.072 17.9321C176.339 17.2521 176.712 16.6655 177.192 16.1721C177.672 15.6655 178.239 15.2788 178.892 15.0121C179.559 14.7321 180.286 14.5921 181.072 14.5921C181.819 14.5921 182.499 14.7255 183.112 14.9921C183.739 15.2588 184.279 15.6321 184.732 16.1121C185.186 16.5921 185.532 17.1588 185.772 17.8121C186.012 18.4655 186.119 19.1788 186.092 19.9521L186.072 20.8121H177.612L177.152 19.0121H183.472L183.132 19.3921V18.9921C183.106 18.6588 182.999 18.3655 182.812 18.1121C182.639 17.8455 182.406 17.6388 182.112 17.4921C181.819 17.3455 181.486 17.2721 181.112 17.2721C180.592 17.2721 180.146 17.3788 179.772 17.5921C179.412 17.7921 179.139 18.0921 178.952 18.4921C178.766 18.8788 178.672 19.3588 178.672 19.9321C178.672 20.5188 178.792 21.0321 179.032 21.4721C179.286 21.8988 179.646 22.2321 180.112 22.4721C180.592 22.7121 181.159 22.8321 181.812 22.8321C182.266 22.8321 182.666 22.7655 183.012 22.6321C183.372 22.4988 183.759 22.2721 184.172 21.9521L185.672 24.0721C185.259 24.4321 184.819 24.7255 184.352 24.9521C183.886 25.1788 183.406 25.3455 182.912 25.4521C182.432 25.5721 181.952 25.6321 181.472 25.6321ZM188.131 25.4321V14.8121H191.171L191.311 18.2721L190.711 17.6121C190.871 17.0388 191.131 16.5255 191.491 16.0721C191.864 15.6188 192.298 15.2588 192.791 14.9921C193.284 14.7255 193.811 14.5921 194.371 14.5921C194.611 14.5921 194.831 14.6121 195.031 14.6521C195.244 14.6921 195.438 14.7388 195.611 14.7921L194.731 18.3321C194.584 18.2388 194.384 18.1655 194.131 18.1121C193.891 18.0455 193.638 18.0121 193.371 18.0121C193.078 18.0121 192.804 18.0655 192.551 18.1721C192.298 18.2655 192.084 18.4055 191.911 18.5921C191.738 18.7788 191.598 18.9988 191.491 19.2521C191.398 19.5055 191.351 19.7921 191.351 20.1121V25.4321H188.131Z" fill="#009688"/>
</svg>
