<svg width="196" height="35" viewBox="0 0 196 35" fill="none" xmlns="http://www.w3.org/2000/svg">
<path d="M1 24.2312L11.1325 21.4319" stroke="white" stroke-width="1.3" stroke-miterlimit="10" stroke-linecap="round"/>
<path d="M11.7695 29.2179L14.9199 28.3793" stroke="white" stroke-width="1.3" stroke-miterlimit="10" stroke-linecap="round"/>
<path d="M5.82617 15.5726C5.97878 13.3777 6.58719 11.2403 7.61146 9.30077C8.63573 7.36124 10.0527 5.66336 11.7694 4.31856C13.4652 2.99649 15.4081 2.03755 17.4801 1.49987C19.5521 0.962183 21.7102 0.856954 23.8235 1.19056" stroke="white" stroke-width="1.3" stroke-miterlimit="10" stroke-linecap="round"/>
<path d="M36.3693 13.2039C36.9466 15.2912 37.0535 17.4836 36.6821 19.6185C36.3729 21.7788 35.51 23.8188 34.1797 25.5345" stroke="white" stroke-width="1.3" stroke-miterlimit="10" stroke-linecap="round"/>
<path d="M8.42969 26.1239L12.8536 24.8772" stroke="white" stroke-width="1.3" stroke-miterlimit="10" stroke-linecap="round"/>
<path d="M5.2793 26.9739L6.56402 26.6226" stroke="white" stroke-width="1.3" stroke-miterlimit="10" stroke-linecap="round"/>
<path d="M33.6211 10.1099L36.0788 9.40723" stroke="white" stroke-width="1.3" stroke-miterlimit="10" stroke-linecap="round"/>
<path d="M32.1914 7.57117L33.9565 5.76917" stroke="white" stroke-width="1.3" stroke-miterlimit="10" stroke-linecap="round"/>
<path d="M29.7773 6.10918L30.3694 3.61584" stroke="white" stroke-width="1.3" stroke-miterlimit="10" stroke-linecap="round"/>
<path d="M26.8284 6.21118L26.2363 3.61584" stroke="white" stroke-width="1.3" stroke-miterlimit="10" stroke-linecap="round"/>
<path d="M14.2378 17.4992C14.2378 17.4992 9.31116 11.4585 11.8694 9.65652C14.1037 8.06985 15.9023 11.0619 16.595 12.2065C17.3882 13.5212 19.9464 17.3972 19.9464 17.3972" stroke="white" stroke-width="1.3" stroke-miterlimit="10" stroke-linecap="round"/>
<path d="M14.3281 13.7025C14.6298 12.8979 16.3055 12.5012 16.2831 11.7645" stroke="white" stroke-width="1.3" stroke-miterlimit="10" stroke-linecap="round"/>
<path d="M15.7129 16.3999C15.9076 15.7938 16.3287 15.2893 16.8859 14.9946C17.2478 14.8129 17.5826 14.5801 17.8802 14.3032" stroke="white" stroke-width="1.3" stroke-miterlimit="10" stroke-linecap="round"/>
<path d="M18.5718 6.93661L18.4824 4.86261L22.5042 4.61328L22.6047 6.73261L18.5718 6.93661Z" stroke="white" stroke-width="1.3" stroke-linecap="round" stroke-linejoin="round"/>
<path d="M18.6621 12.9999V10.7332C18.6658 10.2696 18.8016 9.81693 19.0531 9.42986C19.3363 8.63211 19.4393 7.78006 19.3547 6.93652" stroke="white" stroke-width="1.3" stroke-linecap="round" stroke-linejoin="round"/>
<path d="M27.4199 8.61389C27.6946 8.79792 27.9194 9.04896 28.0736 9.344C28.2278 9.63904 28.3065 9.96864 28.3025 10.3026" stroke="white" stroke-width="1.3" stroke-linecap="round" stroke-linejoin="round"/>
<path d="M26.727 10.9032C26.2983 11.1804 25.9468 11.5646 25.7062 12.019C25.4656 12.4734 25.344 12.9828 25.3529 13.4985C25.3387 13.9172 25.4347 14.3321 25.6311 14.7006C25.8274 15.0692 26.117 15.3779 26.4701 15.5952" stroke="white" stroke-width="1.3" stroke-linecap="round" stroke-linejoin="round"/>
<path d="M28.8945 11.6059C29.2273 11.3594 29.6366 11.2432 30.0472 11.2786C30.4577 11.314 30.8418 11.4986 31.1288 11.7985C31.4126 12.1198 31.6001 12.5165 31.6694 12.9421C31.7387 13.3677 31.6868 13.8045 31.5198 14.2012" stroke="white" stroke-width="1.3" stroke-miterlimit="10" stroke-linecap="round"/>
<path d="M23.6787 16.3999L23.5782 11.5039C23.4949 10.5316 23.1553 9.59998 22.5951 8.80661C22.2973 8.21956 22.1296 7.57361 22.1035 6.91394" stroke="white" stroke-width="1.3" stroke-linecap="round" stroke-linejoin="round"/>
<path d="M4.78711 19.1879L11.2777 17.4879L17.4779 28.9686L31.945 25.0813V16.4906" stroke="white" stroke-width="1.3" stroke-linecap="round" stroke-linejoin="round"/>
<path d="M14.9199 18.9385L32.4815 14.1445" stroke="white" stroke-width="1.3" stroke-linecap="round" stroke-linejoin="round"/>
<path d="M16.6406 21.3866L29.432 17.8392" stroke="white" stroke-width="1.3" stroke-miterlimit="10" stroke-linecap="round"/>
<path d="M17.6348 23.5286L29.2866 20.3893" stroke="white" stroke-width="1.3" stroke-miterlimit="10" stroke-linecap="round"/>
<path d="M18.6172 25.7839L29.0402 22.9392" stroke="white" stroke-width="1.3" stroke-miterlimit="10" stroke-linecap="round"/>
<path d="M31.0072 31.2692C32.0931 31.2692 32.9734 30.3762 32.9734 29.2746C32.9734 28.173 32.0931 27.2799 31.0072 27.2799C29.9213 27.2799 29.041 28.173 29.041 29.2746C29.041 30.3762 29.9213 31.2692 31.0072 31.2692Z" stroke="white" stroke-width="1.3" stroke-miterlimit="10" stroke-linecap="round"/>
<path d="M21.3666 33.8646C22.4525 33.8646 23.3328 32.9715 23.3328 31.8699C23.3328 30.7683 22.4525 29.8752 21.3666 29.8752C20.2807 29.8752 19.4004 30.7683 19.4004 31.8699C19.4004 32.9715 20.2807 33.8646 21.3666 33.8646Z" stroke="white" stroke-width="1.3" stroke-miterlimit="10" stroke-linecap="round"/>
<path d="M24.8633 30.8725L27.5668 30.1245" stroke="white" stroke-width="1.3" stroke-miterlimit="10" stroke-linecap="round"/>
<path d="M61.1984 27.6323L55.8384 20.3723L58.3384 18.6323L63.6384 25.8323L61.1984 27.6323ZM57.0184 25.6323C55.9651 25.6323 54.9984 25.4523 54.1184 25.0923C53.2384 24.7323 52.4718 24.2256 51.8184 23.5723C51.1651 22.9189 50.6584 22.1523 50.2984 21.2723C49.9384 20.3923 49.7584 19.4256 49.7584 18.3723C49.7584 17.3189 49.9384 16.3523 50.2984 15.4723C50.6584 14.5923 51.1651 13.8256 51.8184 13.1723C52.4718 12.5189 53.2384 12.0123 54.1184 11.6523C54.9984 11.2923 55.9651 11.1123 57.0184 11.1123C58.0718 11.1123 59.0384 11.2923 59.9184 11.6523C60.7984 12.0123 61.5651 12.5189 62.2184 13.1723C62.8718 13.8256 63.3718 14.5923 63.7184 15.4723C64.0784 16.3523 64.2584 17.3189 64.2584 18.3723C64.2584 19.4123 64.0784 20.3789 63.7184 21.2723C63.3718 22.1523 62.8718 22.9189 62.2184 23.5723C61.5651 24.2256 60.7984 24.7323 59.9184 25.0923C59.0384 25.4523 58.0718 25.6323 57.0184 25.6323ZM57.0184 22.4323C57.5651 22.4323 58.0651 22.3323 58.5184 22.1323C58.9851 21.9323 59.3851 21.6523 59.7184 21.2923C60.0651 20.9189 60.3318 20.4856 60.5184 19.9923C60.7051 19.4989 60.7984 18.9589 60.7984 18.3723C60.7984 17.7856 60.7051 17.2456 60.5184 16.7523C60.3318 16.2589 60.0651 15.8323 59.7184 15.4723C59.3851 15.0989 58.9851 14.8123 58.5184 14.6123C58.0651 14.4123 57.5651 14.3122 57.0184 14.3122C56.4718 14.3122 55.9651 14.4123 55.4984 14.6123C55.0451 14.8123 54.6451 15.0989 54.2984 15.4723C53.9518 15.8323 53.6851 16.2589 53.4984 16.7523C53.3251 17.2456 53.2384 17.7856 53.2384 18.3723C53.2384 18.9589 53.3251 19.5056 53.4984 20.0123C53.6851 20.5056 53.9518 20.9323 54.2984 21.2923C54.6451 21.6523 55.0451 21.9323 55.4984 22.1323C55.9651 22.3323 56.4718 22.4323 57.0184 22.4323ZM70.1689 25.6523C69.3822 25.6523 68.7089 25.4856 68.1489 25.1523C67.6022 24.8056 67.1756 24.3123 66.8689 23.6723C66.5756 23.0323 66.4289 22.2656 66.4289 21.3723V14.8123H69.6489V20.9323C69.6489 21.3589 69.7156 21.7256 69.8489 22.0323C69.9822 22.3389 70.1822 22.5789 70.4489 22.7523C70.7156 22.9123 71.0356 22.9923 71.4089 22.9923C71.6889 22.9923 71.9422 22.9456 72.1689 22.8523C72.4089 22.7589 72.6089 22.6323 72.7689 22.4723C72.9422 22.2989 73.0756 22.1056 73.1689 21.8923C73.2622 21.6656 73.3089 21.4189 73.3089 21.1523V14.8123H76.5289V25.4323H73.5089L73.3689 23.2523L73.9689 23.0123C73.8089 23.5189 73.5422 23.9723 73.1689 24.3723C72.7956 24.7589 72.3489 25.0723 71.8289 25.3123C71.3089 25.5389 70.7556 25.6523 70.1689 25.6523ZM83.3009 25.6123C82.4076 25.6123 81.6076 25.3789 80.9009 24.9123C80.2076 24.4323 79.6543 23.7789 79.2409 22.9523C78.8276 22.1123 78.6209 21.1656 78.6209 20.1123C78.6209 19.0323 78.8276 18.0789 79.2409 17.2523C79.6543 16.4256 80.2209 15.7789 80.9409 15.3123C81.6609 14.8322 82.4809 14.5922 83.4009 14.5922C83.9076 14.5922 84.3676 14.6656 84.7809 14.8123C85.2076 14.9589 85.5809 15.1656 85.9009 15.4323C86.2209 15.6856 86.4943 15.9856 86.7209 16.3323C86.9476 16.6656 87.1143 17.0256 87.2209 17.4123L86.5609 17.3323V14.8123H89.7409V25.4323H86.5009V22.8723L87.2209 22.8523C87.1143 23.2256 86.9409 23.5789 86.7009 23.9123C86.4609 24.2456 86.1676 24.5389 85.8209 24.7923C85.4743 25.0456 85.0876 25.2456 84.6609 25.3923C84.2343 25.5389 83.7809 25.6123 83.3009 25.6123ZM84.1809 22.9123C84.6743 22.9123 85.1009 22.7989 85.4609 22.5723C85.8209 22.3456 86.1009 22.0256 86.3009 21.6123C86.5009 21.1856 86.6009 20.6856 86.6009 20.1123C86.6009 19.5389 86.5009 19.0456 86.3009 18.6323C86.1009 18.2056 85.8209 17.8789 85.4609 17.6523C85.1009 17.4123 84.6743 17.2923 84.1809 17.2923C83.7009 17.2923 83.2809 17.4123 82.9209 17.6523C82.5743 17.8789 82.3009 18.2056 82.1009 18.6323C81.9009 19.0456 81.8009 19.5389 81.8009 20.1123C81.8009 20.6856 81.9009 21.1856 82.1009 21.6123C82.3009 22.0256 82.5743 22.3456 82.9209 22.5723C83.2809 22.7989 83.7009 22.9123 84.1809 22.9123ZM93.4445 25.4323V12.1323H96.6445V25.4323H93.4445ZM91.5645 17.6123V14.8123H98.7045V17.6123H91.5645ZM100.533 25.4323V14.8123H103.573L103.713 18.2723L103.113 17.6123C103.273 17.0389 103.533 16.5256 103.893 16.0723C104.267 15.6189 104.7 15.2589 105.193 14.9923C105.687 14.7256 106.213 14.5922 106.773 14.5922C107.013 14.5922 107.233 14.6123 107.433 14.6523C107.647 14.6923 107.84 14.7389 108.013 14.7923L107.133 18.3323C106.987 18.2389 106.787 18.1656 106.533 18.1123C106.293 18.0456 106.04 18.0123 105.773 18.0123C105.48 18.0123 105.207 18.0656 104.953 18.1723C104.7 18.2656 104.487 18.4056 104.313 18.5923C104.14 18.7789 104 18.9989 103.893 19.2523C103.8 19.5056 103.753 19.7923 103.753 20.1123V25.4323H100.533ZM114.186 25.6323C113.079 25.6323 112.092 25.3923 111.226 24.9123C110.372 24.4323 109.692 23.7789 109.186 22.9523C108.692 22.1256 108.446 21.1789 108.446 20.1123C108.446 19.0456 108.692 18.0989 109.186 17.2723C109.692 16.4456 110.372 15.7923 111.226 15.3123C112.092 14.8322 113.079 14.5922 114.186 14.5922C115.292 14.5922 116.272 14.8322 117.126 15.3123C117.992 15.7923 118.672 16.4456 119.166 17.2723C119.659 18.0989 119.906 19.0456 119.906 20.1123C119.906 21.1789 119.659 22.1256 119.166 22.9523C118.672 23.7789 117.992 24.4323 117.126 24.9123C116.272 25.3923 115.292 25.6323 114.186 25.6323ZM114.186 22.8723C114.666 22.8723 115.092 22.7523 115.466 22.5123C115.839 22.2723 116.132 21.9456 116.346 21.5323C116.559 21.1189 116.659 20.6456 116.646 20.1123C116.659 19.5789 116.559 19.1056 116.346 18.6923C116.132 18.2656 115.839 17.9323 115.466 17.6923C115.092 17.4523 114.666 17.3323 114.186 17.3323C113.706 17.3323 113.272 17.4523 112.886 17.6923C112.512 17.9323 112.219 18.2656 112.006 18.6923C111.792 19.1056 111.692 19.5789 111.706 20.1123C111.692 20.6456 111.792 21.1189 112.006 21.5323C112.219 21.9456 112.512 22.2723 112.886 22.5123C113.272 22.7523 113.706 22.8723 114.186 22.8723ZM135.244 25.6323C134.124 25.6323 133.111 25.4523 132.204 25.0923C131.298 24.7323 130.518 24.2256 129.864 23.5723C129.211 22.9189 128.711 22.1523 128.364 21.2723C128.018 20.3789 127.844 19.4123 127.844 18.3723C127.844 17.3323 128.024 16.3789 128.384 15.5123C128.758 14.6323 129.284 13.8656 129.964 13.2123C130.644 12.5589 131.444 12.0523 132.364 11.6923C133.298 11.3323 134.311 11.1523 135.404 11.1523C136.178 11.1523 136.904 11.2522 137.584 11.4522C138.278 11.6523 138.904 11.9256 139.464 12.2722C140.024 12.6189 140.498 13.0189 140.884 13.4722L138.824 15.6523C138.491 15.3323 138.144 15.0656 137.784 14.8523C137.438 14.6389 137.064 14.4723 136.664 14.3523C136.264 14.2189 135.838 14.1523 135.384 14.1523C134.798 14.1523 134.258 14.2589 133.764 14.4723C133.284 14.6856 132.858 14.9856 132.484 15.3723C132.124 15.7456 131.844 16.1923 131.644 16.7123C131.444 17.2189 131.344 17.7723 131.344 18.3723C131.344 18.9723 131.451 19.5323 131.664 20.0523C131.878 20.5723 132.171 21.0256 132.544 21.4123C132.918 21.7856 133.358 22.0856 133.864 22.3123C134.384 22.5256 134.938 22.6323 135.524 22.6323C135.938 22.6323 136.324 22.5656 136.684 22.4323C137.058 22.2989 137.378 22.1189 137.644 21.8923C137.911 21.6656 138.124 21.3989 138.284 21.0923C138.444 20.7723 138.524 20.4323 138.524 20.0723V19.5523L138.964 20.2323H135.104V17.5723H141.684C141.711 17.7189 141.731 17.9189 141.744 18.1723C141.758 18.4256 141.764 18.6723 141.764 18.9123C141.778 19.1523 141.784 19.3323 141.784 19.4523C141.784 20.3589 141.618 21.1923 141.284 21.9523C140.964 22.6989 140.511 23.3456 139.924 23.8923C139.338 24.4389 138.644 24.8656 137.844 25.1723C137.044 25.4789 136.178 25.6323 135.244 25.6323ZM144.049 25.4323V14.8123H147.089L147.229 18.2723L146.629 17.6123C146.789 17.0389 147.049 16.5256 147.409 16.0723C147.782 15.6189 148.216 15.2589 148.709 14.9923C149.202 14.7256 149.729 14.5922 150.289 14.5922C150.529 14.5922 150.749 14.6123 150.949 14.6523C151.162 14.6923 151.356 14.7389 151.529 14.7923L150.649 18.3323C150.502 18.2389 150.302 18.1656 150.049 18.1123C149.809 18.0456 149.556 18.0123 149.289 18.0123C148.996 18.0123 148.722 18.0656 148.469 18.1723C148.216 18.2656 148.002 18.4056 147.829 18.5923C147.656 18.7789 147.516 18.9989 147.409 19.2523C147.316 19.5056 147.269 19.7923 147.269 20.1123V25.4323H144.049ZM157.701 25.6323C156.595 25.6323 155.608 25.3923 154.741 24.9123C153.888 24.4323 153.208 23.7789 152.701 22.9523C152.208 22.1256 151.961 21.1789 151.961 20.1123C151.961 19.0456 152.208 18.0989 152.701 17.2723C153.208 16.4456 153.888 15.7923 154.741 15.3123C155.608 14.8322 156.595 14.5922 157.701 14.5922C158.808 14.5922 159.788 14.8322 160.641 15.3123C161.508 15.7923 162.188 16.4456 162.681 17.2723C163.175 18.0989 163.421 19.0456 163.421 20.1123C163.421 21.1789 163.175 22.1256 162.681 22.9523C162.188 23.7789 161.508 24.4323 160.641 24.9123C159.788 25.3923 158.808 25.6323 157.701 25.6323ZM157.701 22.8723C158.181 22.8723 158.608 22.7523 158.981 22.5123C159.355 22.2723 159.648 21.9456 159.861 21.5323C160.075 21.1189 160.175 20.6456 160.161 20.1123C160.175 19.5789 160.075 19.1056 159.861 18.6923C159.648 18.2656 159.355 17.9323 158.981 17.6923C158.608 17.4523 158.181 17.3323 157.701 17.3323C157.221 17.3323 156.788 17.4523 156.401 17.6923C156.028 17.9323 155.735 18.2656 155.521 18.6923C155.308 19.1056 155.208 19.5789 155.221 20.1123C155.208 20.6456 155.308 21.1189 155.521 21.5323C155.735 21.9456 156.028 22.2723 156.401 22.5123C156.788 22.7523 157.221 22.8723 157.701 22.8723ZM170.174 25.6323C169.147 25.6323 168.227 25.3923 167.414 24.9123C166.6 24.4323 165.954 23.7789 165.474 22.9523C165.007 22.1123 164.774 21.1656 164.774 20.1123C164.774 19.0589 165.007 18.1189 165.474 17.2923C165.954 16.4523 166.6 15.7923 167.414 15.3123C168.227 14.8322 169.147 14.5922 170.174 14.5922C171.12 14.5922 171.987 14.7589 172.774 15.0923C173.574 15.4256 174.207 15.8923 174.674 16.4923L172.934 18.5723C172.747 18.3589 172.527 18.1589 172.274 17.9723C172.02 17.7856 171.74 17.6389 171.434 17.5323C171.127 17.4256 170.807 17.3723 170.474 17.3723C169.967 17.3723 169.52 17.4923 169.134 17.7323C168.747 17.9589 168.447 18.2789 168.234 18.6923C168.02 19.1056 167.914 19.5789 167.914 20.1123C167.914 20.6189 168.02 21.0789 168.234 21.4923C168.46 21.9056 168.767 22.2323 169.154 22.4723C169.54 22.7123 169.98 22.8323 170.474 22.8323C170.82 22.8323 171.14 22.7923 171.434 22.7123C171.727 22.6189 171.994 22.4856 172.234 22.3123C172.487 22.1389 172.72 21.9256 172.934 21.6723L174.654 23.7723C174.2 24.3456 173.567 24.7989 172.754 25.1323C171.954 25.4656 171.094 25.6323 170.174 25.6323ZM181.472 25.6323C180.299 25.6323 179.279 25.3989 178.412 24.9323C177.546 24.4523 176.872 23.8056 176.392 22.9923C175.912 22.1656 175.672 21.2256 175.672 20.1723C175.672 19.3589 175.806 18.6123 176.072 17.9323C176.339 17.2523 176.712 16.6656 177.192 16.1723C177.672 15.6656 178.239 15.2789 178.892 15.0123C179.559 14.7323 180.286 14.5922 181.072 14.5922C181.819 14.5922 182.499 14.7256 183.112 14.9923C183.739 15.2589 184.279 15.6323 184.732 16.1123C185.186 16.5923 185.532 17.1589 185.772 17.8123C186.012 18.4656 186.119 19.1789 186.092 19.9523L186.072 20.8123H177.612L177.152 19.0123H183.472L183.132 19.3923V18.9923C183.106 18.6589 182.999 18.3656 182.812 18.1123C182.639 17.8456 182.406 17.6389 182.112 17.4923C181.819 17.3456 181.486 17.2723 181.112 17.2723C180.592 17.2723 180.146 17.3789 179.772 17.5923C179.412 17.7923 179.139 18.0923 178.952 18.4923C178.766 18.8789 178.672 19.3589 178.672 19.9323C178.672 20.5189 178.792 21.0323 179.032 21.4723C179.286 21.8989 179.646 22.2323 180.112 22.4723C180.592 22.7123 181.159 22.8323 181.812 22.8323C182.266 22.8323 182.666 22.7656 183.012 22.6323C183.372 22.4989 183.759 22.2723 184.172 21.9523L185.672 24.0723C185.259 24.4323 184.819 24.7256 184.352 24.9523C183.886 25.1789 183.406 25.3456 182.912 25.4523C182.432 25.5723 181.952 25.6323 181.472 25.6323ZM188.131 25.4323V14.8123H191.171L191.311 18.2723L190.711 17.6123C190.871 17.0389 191.131 16.5256 191.491 16.0723C191.864 15.6189 192.298 15.2589 192.791 14.9923C193.284 14.7256 193.811 14.5922 194.371 14.5922C194.611 14.5922 194.831 14.6123 195.031 14.6523C195.244 14.6923 195.438 14.7389 195.611 14.7923L194.731 18.3323C194.584 18.2389 194.384 18.1656 194.131 18.1123C193.891 18.0456 193.638 18.0123 193.371 18.0123C193.078 18.0123 192.804 18.0656 192.551 18.1723C192.298 18.2656 192.084 18.4056 191.911 18.5923C191.738 18.7789 191.598 18.9989 191.491 19.2523C191.398 19.5056 191.351 19.7923 191.351 20.1123V25.4323H188.131Z" fill="white"/>
</svg>
